<svg width="145" height="20" viewBox="0 0 145 20" fill="none" xmlns="http://www.w3.org/2000/svg">
<path d="M8.44657 0.592H11.7486L13.8286 6.702L15.9086 0.592H19.2366L16.0906 8.99L18.4306 14.892L23.6566 0.539999H27.5566L20.0426 19H17.0266L13.8286 11.252L10.6306 19H7.61457L0.152573 0.539999H4.00057L9.25257 14.892L11.5406 8.99L8.44657 0.592ZM34.5319 19.26C33.4399 19.26 32.4519 19.078 31.5679 18.714C30.6839 18.3327 29.9299 17.8213 29.3059 17.18C28.6819 16.5387 28.1966 15.7933 27.8499 14.944C27.5206 14.0947 27.3559 13.202 27.3559 12.266C27.3559 11.2953 27.5206 10.3853 27.8499 9.536C28.1792 8.66933 28.6559 7.91533 29.2799 7.274C29.9039 6.61533 30.6579 6.09533 31.5419 5.714C32.4432 5.33267 33.4486 5.142 34.5579 5.142C35.6672 5.142 36.6552 5.33267 37.5219 5.714C38.4059 6.09533 39.1512 6.60667 39.7579 7.248C40.3819 7.88933 40.8499 8.63467 41.1619 9.484C41.4912 10.3333 41.6559 11.2173 41.6559 12.136C41.6559 12.3613 41.6472 12.578 41.6299 12.786C41.6299 12.994 41.6126 13.1673 41.5779 13.306H31.0479C31.0999 13.8433 31.2299 14.32 31.4379 14.736C31.6459 15.152 31.9146 15.5073 32.2439 15.802C32.5732 16.0967 32.9459 16.322 33.3619 16.478C33.7779 16.634 34.2112 16.712 34.6619 16.712C35.3552 16.712 36.0052 16.5473 36.6119 16.218C37.2359 15.8713 37.6606 15.4207 37.8859 14.866L40.8759 15.698C40.3732 16.738 39.5672 17.596 38.4579 18.272C37.3659 18.9307 36.0572 19.26 34.5319 19.26ZM38.0679 11.044C37.9812 10.0213 37.5999 9.20667 36.9239 8.6C36.2652 7.976 35.4592 7.664 34.5059 7.664C34.0379 7.664 33.5959 7.75067 33.1799 7.924C32.7812 8.08 32.4259 8.30533 32.1139 8.6C31.8019 8.89467 31.5419 9.25 31.3339 9.666C31.1432 10.082 31.0306 10.5413 30.9959 11.044H38.0679ZM52.3063 19.26C51.2663 19.26 50.339 19.026 49.5243 18.558C48.7097 18.09 48.0683 17.4487 47.6003 16.634V19H44.5583V0.0199995H48.0423V7.768C48.5277 6.936 49.1603 6.29467 49.9403 5.844C50.7377 5.376 51.665 5.142 52.7223 5.142C53.6063 5.142 54.4123 5.33267 55.1403 5.714C55.8683 6.09533 56.4923 6.60667 57.0123 7.248C57.5497 7.88933 57.957 8.64333 58.2343 9.51C58.529 10.3767 58.6763 11.2867 58.6763 12.24C58.6763 13.228 58.5117 14.1467 58.1823 14.996C57.8703 15.8453 57.4283 16.5907 56.8563 17.232C56.2843 17.856 55.6083 18.35 54.8283 18.714C54.0483 19.078 53.2077 19.26 52.3063 19.26ZM51.3443 16.296C51.899 16.296 52.4103 16.192 52.8783 15.984C53.3463 15.7587 53.745 15.464 54.0743 15.1C54.4037 14.736 54.655 14.3113 54.8283 13.826C55.019 13.3407 55.1143 12.8207 55.1143 12.266C55.1143 11.7113 55.0277 11.1827 54.8543 10.68C54.681 10.1773 54.4297 9.73533 54.1003 9.354C53.7883 8.97267 53.4157 8.66933 52.9823 8.444C52.549 8.21867 52.0723 8.106 51.5523 8.106C50.7723 8.106 50.0703 8.366 49.4463 8.886C48.8397 9.38867 48.3717 10.0127 48.0423 10.758V14.008C48.1637 14.3547 48.337 14.6667 48.5623 14.944C48.805 15.2213 49.0737 15.464 49.3683 15.672C49.663 15.8627 49.9837 16.0187 50.3303 16.14C50.677 16.244 51.015 16.296 51.3443 16.296ZM73.0259 5.376C72.9046 5.25467 72.6792 5.09 72.3499 4.882C72.0379 4.674 71.6479 4.47467 71.1799 4.284C70.7292 4.076 70.2352 3.90267 69.6979 3.764C69.1606 3.62533 68.6146 3.556 68.0599 3.556C67.0719 3.556 66.3352 3.738 65.8499 4.102C65.3646 4.466 65.1219 4.97733 65.1219 5.636C65.1219 6.01733 65.2086 6.338 65.3819 6.598C65.5726 6.84067 65.8412 7.05733 66.1879 7.248C66.5346 7.43867 66.9679 7.612 67.4879 7.768C68.0252 7.924 68.6406 8.08867 69.3339 8.262C70.2352 8.50467 71.0499 8.76467 71.7779 9.042C72.5232 9.31933 73.1472 9.666 73.6499 10.082C74.1699 10.498 74.5686 11.0007 74.8459 11.59C75.1232 12.162 75.2619 12.8727 75.2619 13.722C75.2619 14.71 75.0712 15.5593 74.6899 16.27C74.3259 16.9633 73.8232 17.5267 73.1819 17.96C72.5579 18.3933 71.8299 18.714 70.9979 18.922C70.1832 19.1127 69.3252 19.208 68.4239 19.208C67.0372 19.208 65.6679 19 64.3159 18.584C62.9639 18.168 61.7506 17.5787 60.6759 16.816L62.2619 13.722C62.4179 13.878 62.6952 14.086 63.0939 14.346C63.5099 14.5887 63.9952 14.84 64.5499 15.1C65.1046 15.3427 65.7199 15.5507 66.3959 15.724C67.0719 15.8973 67.7652 15.984 68.4759 15.984C70.4519 15.984 71.4399 15.3513 71.4399 14.086C71.4399 13.6873 71.3272 13.3493 71.1019 13.072C70.8766 12.7947 70.5559 12.552 70.1399 12.344C69.7239 12.136 69.2212 11.9453 68.6319 11.772C68.0426 11.5987 67.3839 11.408 66.6559 11.2C65.7719 10.9573 65.0006 10.6973 64.3419 10.42C63.7006 10.1253 63.1632 9.78733 62.7299 9.406C62.2966 9.00733 61.9672 8.55667 61.7419 8.054C61.5339 7.534 61.4299 6.91867 61.4299 6.208C61.4299 5.272 61.6032 4.44 61.9499 3.712C62.2966 2.984 62.7732 2.37733 63.3799 1.892C64.0039 1.40667 64.7232 1.04267 65.5379 0.799999C66.3526 0.539999 67.2279 0.409999 68.1639 0.409999C69.4639 0.409999 70.6599 0.617999 71.7519 1.034C72.8439 1.43267 73.7972 1.90933 74.6119 2.464L73.0259 5.376ZM86.4269 18.298C85.9589 18.506 85.3869 18.714 84.7109 18.922C84.0349 19.13 83.3242 19.234 82.5789 19.234C82.0935 19.234 81.6342 19.1733 81.2009 19.052C80.7849 18.9307 80.4122 18.74 80.0829 18.48C79.7709 18.2027 79.5195 17.856 79.3289 17.44C79.1382 17.0067 79.0429 16.4867 79.0429 15.88V8.054H77.2489V5.376H79.0429V0.956H82.5269V5.376H85.3869V8.054H82.5269V14.71C82.5269 15.1953 82.6482 15.542 82.8909 15.75C83.1509 15.9407 83.4629 16.036 83.8269 16.036C84.1909 16.036 84.5462 15.9753 84.8929 15.854C85.2395 15.7327 85.5169 15.6287 85.7249 15.542L86.4269 18.298ZM93.1814 19.26C91.7774 19.26 90.7114 18.8093 89.9834 17.908C89.2554 17.0067 88.8914 15.672 88.8914 13.904V5.376H92.3754V13.15C92.3754 15.2473 93.1294 16.296 94.6374 16.296C95.3134 16.296 95.9634 16.0967 96.5874 15.698C97.2287 15.282 97.7487 14.658 98.1474 13.826V5.376H101.631V14.996C101.631 15.36 101.692 15.62 101.813 15.776C101.952 15.932 102.169 16.0187 102.463 16.036V19C102.117 19.0693 101.822 19.1127 101.579 19.13C101.354 19.1473 101.146 19.156 100.955 19.156C100.331 19.156 99.8201 19.0173 99.4214 18.74C99.0401 18.4453 98.8147 18.0467 98.7454 17.544L98.6674 16.452C98.0607 17.388 97.2807 18.09 96.3274 18.558C95.3741 19.026 94.3254 19.26 93.1814 19.26ZM111.516 19.26C110.58 19.26 109.713 19.078 108.916 18.714C108.118 18.35 107.434 17.8473 106.862 17.206C106.29 16.5647 105.839 15.8193 105.51 14.97C105.198 14.1033 105.042 13.176 105.042 12.188C105.042 11.2 105.189 10.2813 105.484 9.432C105.796 8.58267 106.22 7.83733 106.758 7.196C107.295 6.55467 107.936 6.052 108.682 5.688C109.427 5.324 110.242 5.142 111.126 5.142C112.131 5.142 113.032 5.38467 113.83 5.87C114.644 6.35533 115.277 6.988 115.728 7.768V0.0199995H119.212V14.996C119.212 15.36 119.272 15.62 119.394 15.776C119.515 15.932 119.723 16.0187 120.018 16.036V19C119.411 19.1213 118.917 19.182 118.536 19.182C117.912 19.182 117.4 19.026 117.002 18.714C116.603 18.402 116.378 17.9947 116.326 17.492L116.248 16.634C115.745 17.5007 115.06 18.1593 114.194 18.61C113.344 19.0433 112.452 19.26 111.516 19.26ZM112.426 16.296C112.755 16.296 113.093 16.244 113.44 16.14C113.786 16.0187 114.107 15.854 114.402 15.646C114.696 15.438 114.956 15.1953 115.182 14.918C115.424 14.6407 115.606 14.3373 115.728 14.008V10.758C115.589 10.3767 115.39 10.03 115.13 9.718C114.887 9.38867 114.601 9.11133 114.272 8.886C113.96 8.64333 113.622 8.45267 113.258 8.314C112.911 8.17533 112.564 8.106 112.218 8.106C111.698 8.106 111.212 8.21867 110.762 8.444C110.328 8.66933 109.956 8.98133 109.644 9.38C109.332 9.76133 109.089 10.2033 108.916 10.706C108.742 11.2087 108.656 11.7287 108.656 12.266C108.656 12.838 108.751 13.3667 108.942 13.852C109.132 14.3373 109.392 14.762 109.722 15.126C110.051 15.49 110.441 15.776 110.892 15.984C111.36 16.192 111.871 16.296 112.426 16.296ZM123.411 19V5.376H126.895V19H123.411ZM123.411 3.478V0.0199995H126.895V3.478H123.411ZM137.11 19.26C136.001 19.26 135.004 19.0693 134.12 18.688C133.236 18.3067 132.482 17.7953 131.858 17.154C131.252 16.4953 130.784 15.7413 130.454 14.892C130.125 14.0427 129.96 13.15 129.96 12.214C129.96 11.2607 130.125 10.3593 130.454 9.51C130.784 8.66067 131.252 7.91533 131.858 7.274C132.482 6.61533 133.236 6.09533 134.12 5.714C135.004 5.33267 136.001 5.142 137.11 5.142C138.22 5.142 139.208 5.33267 140.074 5.714C140.958 6.09533 141.704 6.61533 142.31 7.274C142.934 7.91533 143.411 8.66067 143.74 9.51C144.07 10.3593 144.234 11.2607 144.234 12.214C144.234 13.15 144.07 14.0427 143.74 14.892C143.411 15.7413 142.943 16.4953 142.336 17.154C141.73 17.7953 140.984 18.3067 140.1 18.688C139.216 19.0693 138.22 19.26 137.11 19.26ZM133.548 12.214C133.548 12.8207 133.635 13.3753 133.808 13.878C133.999 14.3633 134.25 14.788 134.562 15.152C134.892 15.516 135.273 15.802 135.706 16.01C136.14 16.2007 136.608 16.296 137.11 16.296C137.613 16.296 138.081 16.2007 138.514 16.01C138.948 15.802 139.32 15.516 139.632 15.152C139.962 14.788 140.213 14.3547 140.386 13.852C140.577 13.3493 140.672 12.7947 140.672 12.188C140.672 11.5987 140.577 11.0527 140.386 10.55C140.213 10.0473 139.962 9.614 139.632 9.25C139.32 8.886 138.948 8.60867 138.514 8.418C138.081 8.21 137.613 8.106 137.11 8.106C136.608 8.106 136.14 8.21 135.706 8.418C135.273 8.626 134.892 8.912 134.562 9.276C134.25 9.64 133.999 10.0733 133.808 10.576C133.635 11.0787 133.548 11.6247 133.548 12.214Z" fill="#2196F3"/>
</svg>
